PathFileType	4	(X/Y/Z)	T1_P2_NoVision_NoMovement_3_0-734.trc
DataRate	CameraRate	NumFrames	NumMarkers	Units	OrigDataRate	OrigDataStartFrame	OrigNumFrames
60	60	4	27	m	60	183	734
Frame#	Time	RHip			RKnee			RAnkle			RBigToe			RSmallToe			RHeel			LHip			LKnee			LAnkle			LBigToe			LSmallToe			LHeel			Neck			Head			Nose			RShoulder			RElbow			RWrist			RThumb			RIndex			RPinky			LShoulder			LElbow			LWrist			LThumb			LIndex			LPinky		
		X1	Y1	Z1	X2	Y2	Z2	X3	Y3	Z3	X4	Y4	Z4	X5	Y5	Z5	X6	Y6	Z6	X7	Y7	Z7	X8	Y8	Z8	X9	Y9	Z9	X10	Y10	Z10	X11	Y11	Z11	X12	Y12	Z12	X13	Y13	Z13	X14	Y14	Z14	X15	Y15	Z15	X16	Y16	Z16	X17	Y17	Z17	X18	Y18	Z18	X19	Y19	Z19	X20	Y20	Z20	X21	Y21	Z21	X22	Y22	Z22	X23	Y23	Z23	X24	Y24	Z24	X25	Y25	Z25	X26	Y26	Z26	X27	Y27	Z27
184	3.066666666666667	468.0875191627406	3639.9167498898823	554.4234945204188	854.8888311729439	3659.5634181462988	553.773478105615	1235.845653494811	3744.457781716761	614.7585438058218	1330.644508669536	3637.59652812493	578.4542968711384	1305.7856893685835	3673.159790788305	520.3886279867677	1273.0367330010836	3735.465465108524	625.9693995816524	463.6972215570555	3505.4171908234603	733.7555895315865	873.7011669801044	3562.390072342223	753.6097629969714	1226.8634748731206	3602.640926318467	727.1693802078931	1303.2640691200068	3486.200958343463	673.2536617530826	1275.831063585643	3455.551675625078	716.5443922104841	1263.6078313408502	3614.996549546946	710.8462882652292	-126.4297729217992	3588.1980311089555	685.3926649240859	-391.54208832296	3565.7850909240324	667.6900455625129	-250.43453235944926	3481.038561206519	629.1519350865088	-39.73772464351191	3662.2271100503076	550.7163680479371	201.8101251646794	3669.810005077043	485.37381036356345	347.6782911609354	3468.090695176719	533.1467405339454	408.24268044044754	3387.4250692886067	583.1328787197069	426.32178030244836	3408.643885849827	603.3473976530154	456.3423277289508	3418.5881572498815	596.1383060108914	-27.926721176994562	3550.0170371154118	857.7433317001322	212.49815742610988	3413.570205078261	810.9740621529461	363.4217080262875	3412.4688876493474	637.2219447208267	424.04694533306616	3450.580771646208	552.8298517086843	451.66903179734373	3502.459562114849	582.483081248144	458.46108091359054	3404.6884777617533	585.1497039831315
185	3.083333333333333	467.3743183634987	3639.655195221477	554.3113116097251	854.1319678328485	3658.1303962444676	551.6509084130079	1233.2813797022286	3738.2522096869793	612.9613175564393	1332.6066349779373	3642.4456391228664	582.3659911414344	1307.2376499389225	3674.238317025789	520.8204352066055	1269.9151506743347	3728.6996353943223	623.9527638207489	463.2106122889923	3505.153309195005	733.6100805313897	873.0381308849954	3563.347332299138	753.6888299459492	1226.7975347627876	3604.589104025968	728.2740342536828	1303.0925960627385	3488.1895007732555	674.0431297051052	1276.2840918957372	3456.0798449992853	716.5995895067683	1263.3785038621556	3618.6342117782096	714.2467821014684	-126.4683618862383	3588.3222903543237	685.4776718644712	-393.53934904841907	3565.763411411229	667.8311351569121	-251.6202253429366	3482.024753318823	629.687356270094	-39.684822506502506	3667.8496281768103	552.0716424148235	200.41134640003142	3667.2421279236464	484.98020704346044	347.7748345377864	3468.007429659114	533.2054868953184	408.7855992444961	3387.939911210878	584.125702861723	426.2970417311915	3408.336454213119	603.282256400081	456.3738238111678	3418.6999983620162	596.1189765413104	-27.516788875521367	3550.0992154541464	857.7948057300301	211.97612523985632	3414.118818619881	811.3273016721039	363.2620685545743	3412.384267677711	637.1652689991209	422.67250030348816	3449.654905983482	552.5260953070128	451.27169760123235	3501.174129293243	581.2192886172106	456.49006894653724	3401.305058585391	582.5346998954958
186	3.1	467.0940922515879	3639.4889800857018	554.2129695368827	854.6965210130844	3656.9157505285148	549.7487358399094	1231.503504848811	3731.3493364939995	611.2686704392396	1333.1955340422026	3643.9701118114886	583.7354673378971	1308.6407341188276	3675.190161759884	521.160408791784	1267.5449204003155	3719.018641924355	622.2441418912126	463.15768202626305	3504.973789597407	733.5096086020162	872.5553472731215	3560.5785009025167	752.7776798510668	1226.3516168169574	3604.381778148206	728.8661576569111	1302.8949814129644	3486.6673565136502	673.6357247498843	1276.0979990151118	3456.1496011475565	716.4408967928674	1264.0099612774397	3621.2809426991957	717.5133277863176	-126.50058588843613	3588.4403259866776	685.5532949041758	-394.56484137759355	3566.1525837882286	668.0962913445255	-253.19801425542107	3483.3140884725017	630.3774559512567	-39.66566631894369	3670.120909456452	552.6216582054662	198.76433825699695	3666.0364165020565	484.49289460603325	347.81501626714976	3467.889475939838	533.1795737736622	408.5910455642261	3388.975865561428	585.7646719374487	426.56811320674956	3407.700812545555	603.0511383250121	455.82472966087994	3418.5943691614093	596.0493835617216	-27.22972984236093	3552.3001404657734	858.481588144106	211.9036637069649	3414.4340991644726	811.5262142184062	362.77205422409	3412.201069230806	637.0379724189934	421.2625121469651	3445.447272129948	549.1057772709472	450.6693437627929	3498.436682324971	578.9240282995138	455.9016103850341	3399.0375774359704	580.6219408325182
187	3.1166666666666667	467.09951143948365	3639.485381260705	554.1846970882563	856.7925068839621	3657.614998714282	549.3003721248459	1231.7123335084138	3728.0818618758244	610.758654606679	1332.1098358250363	3642.553550442996	582.5107705616018	1309.039225750906	3675.246053925723	521.1545915835601	1268.0426737911368	3713.891298752398	622.1930204440741	463.31804616082104	3504.826791450224	733.4168706398208	873.1263075161733	3556.087071570767	751.4321851726695	1227.0243803420767	3602.871368228116	728.6622413383423	1302.5521198854985	3482.0063074757463	672.2166045119118	1275.837383438144	3455.955324223451	716.2689610302898	1264.8918418518406	3620.864533190338	718.1445602577389	-126.52574684117371	3588.535029527243	685.6134098755022	-394.22443313083346	3566.640600314254	668.3191065961071	-254.31085220719496	3484.0002243192607	630.7902755062579	-39.6668687433136	3670.3505857178875	552.6893861118166	197.3673641533922	3663.694362594212	482.68644905725176	347.8032064498869	3467.7352038832505	533.4838820636032	406.797512141905	3388.4866983456623	586.2825467458035	427.01017359613843	3406.812787599591	602.6945034038363	454.56659446316746	3418.1576557706185	595.8344900319394	-28.015759753441756	3551.5323159742566	858.1945479613712	212.38693998117245	3414.1124436345	811.3327212401397	361.7063829886455	3411.805099842742	636.775597172878	420.2448205713598	3441.169228498112	545.2217774791734	450.4023394626979	3496.8839145764473	577.5067912428261	456.1467660501307	3398.163504630979	579.7976080865452
